<svg xmlns="http://www.w3.org/2000/svg" xmlns:xlink="http://www.w3.org/1999/xlink" viewBox="0,0,256,256" width="150px" height="150px" fill-rule="nonzero"><g fill="#ffffff" fill-rule="nonzero" stroke="none" stroke-width="1" stroke-linecap="butt" stroke-linejoin="miter" stroke-miterlimit="10" stroke-dasharray="" stroke-dashoffset="0" font-family="none" font-weight="none" font-size="none" text-anchor="none" style="mix-blend-mode: normal"><g transform="scale(5.12,5.12)"><path d="M5,2c-1.65234,0 -3,1.34766 -3,3v30c0,1.65234 1.34766,3 3,3h40c1.65234,0 3,-1.34766 3,-3v-30c0,-1.65234 -1.34766,-3 -3,-3zM7,7h36v26h-36zM19.28125,11.28125l-8,8l-0.6875,0.71875l0.6875,0.71875l8,8l1.4375,-1.4375l-7.28125,-7.28125l7.28125,-7.28125zM30.71875,11.28125l-1.4375,1.4375l7.28125,7.28125l-7.28125,7.28125l1.4375,1.4375l8,-8l0.6875,-0.71875l-0.6875,-0.71875zM20,39v4h10v-4zM10,40c-0.29687,0 -0.58984,0.11719 -0.78125,0.34375l-5,6c-0.25,0.30078 -0.28906,0.74219 -0.125,1.09375c0.16406,0.35156 0.51953,0.5625 0.90625,0.5625h40c0.38672,0 0.74219,-0.21094 0.90625,-0.5625c0.16406,-0.35156 0.12109,-0.79297 -0.125,-1.09375l-5,-6c-0.19141,-0.22656 -0.48437,-0.34375 -0.78125,-0.34375h-8v5h-14v-5z"></path></g></g></svg>